/vscmnt/brussel_pixiu_data/_data_brussel/112/vsc11236/PredSimResults/SUBJ04mtu3D/weighted-LRposFixed/expIG/worker_02.mot
version=1
nRows=9
nColumns=50
inDegrees=yes
endheader
                time	         pelvis_tilt	         pelvis_list	     pelvis_rotation	           pelvis_tx	           pelvis_ty	           pelvis_tz	       hip_flexion_r	     hip_adduction_r	      hip_rotation_r	        knee_angle_r	       ankle_angle_r	         mtp_angle_r	       hip_flexion_l	     hip_adduction_l	      hip_rotation_l	        knee_angle_l	       ankle_angle_l	         mtp_angle_l	    lumbar_extension	      lumbar_bending	     lumbar_rotation	 ercspn_r/activation	 intobl_r/activation	 extobl_r/activation	    abd_r/activation	    add_r/activation	hamstrings_r/activation	bifemsh_r/activation	glut_max_r/activation	iliopsoas_r/activation	rect_fem_r/activation	  vasti_r/activation	gastroc_r/activation	 soleus_r/activation	tib_ant_r/activation	 ercspn_l/activation	 intobl_l/activation	 extobl_l/activation	    abd_l/activation	    add_l/activation	hamstrings_l/activation	bifemsh_l/activation	glut_max_l/activation	iliopsoas_l/activation	rect_fem_l/activation	  vasti_l/activation	gastroc_l/activation	 soleus_l/activation	tib_ant_l/activation	
          1.39192017	         -5.41075471	         -4.81669056	         12.32657921	          1.21097055	          0.88444544	         -0.02168750	         24.49207423	          0.29150829	         -5.08284585	          2.28355885	          5.29473547	          0.21209938	         -8.24042780	         -4.34323786	         15.94579395	         -8.00388282	         12.63765838	         22.18476573	         -2.96584891	          1.66974739	         -0.91688744	          0.09456895	          0.15755989	          0.02146941	          0.02680273	          0.09490179	          0.02722309	          0.01000054	          0.00999999	          0.06063828	          0.01231883	          0.02025576	          0.01000000	          0.01000000	          0.26346564	          0.02658302	          0.00999999	          0.01000000	          0.09622823	          0.01000001	          0.01912808	          0.14356437	          0.07268600	          0.33795994	          0.01000003	          0.01000000	          0.30754202	          0.27471307	          0.01517789	
          1.40583937	         -5.53709903	         -4.70896475	         12.21680837	          1.22557591	          0.88254250	         -0.02060138	         24.15074090	          0.55934693	         -3.82938707	          1.72507763	          4.96222906	          0.21970248	         -8.48514123	         -4.21397676	         15.13469635	         -9.22068725	         12.47999052	         23.80535968	         -2.68530282	          1.95161516	         -1.17181235	          0.07676135	          0.15679628	          0.01742666	          0.02175570	          0.12249263	          0.02518632	          0.01000007	          0.01000027	          0.04921991	          0.01000047	          0.01644159	          0.01517823	          0.01518853	          0.26358483	          0.05223191	          0.00999999	          0.01000000	          0.07810817	          0.01673703	          0.01618126	          0.11653079	          0.06537130	          0.30729046	          0.01000002	          0.01000000	          0.28633430	          0.27178715	          0.01231985	
          1.41975857	         -5.64698592	         -4.59389577	         12.04083423	          1.24057329	          0.88078325	         -0.01941767	         23.68195463	          0.83416918	         -2.62109836	          1.11865295	          4.57885635	          0.21180948	         -8.67554905	         -4.05911817	         14.26638003	        -10.62303272	         12.20927282	         25.47657357	         -2.38705006	          2.24860752	         -1.42047729	          0.06606174	          0.16808736	          0.01414517	          0.02521703	          0.09942693	          0.02885418	          0.04460302	          0.01961889	          0.03995166	          0.01000001	          0.01334560	          0.01232013	          0.01232849	          0.29831482	          0.07177048	          0.00999999	          0.01000000	          0.06340018	          0.03171011	          0.01324700	          0.09458771	          0.05306980	          0.26873205	          0.01000005	          0.01000000	          0.26172208	          0.26194101	          0.00999999	
          1.43367778	         -5.74105063	         -4.47811717	         11.78794008	          1.25577501	          0.87937441	         -0.01812558	         23.10171017	          1.12685456	         -1.48309735	          0.71262514	          4.05411499	          0.19958785	         -8.75114937	         -3.87574034	         13.34993626	        -12.28346923	         11.76868079	         27.19115134	         -2.09011331	          2.56975288	         -1.66104506	          0.06961319	          0.15203588	          0.01148159	          0.04829698	          0.08070459	          0.02950773	          0.03620418	          0.03072715	          0.03242865	          0.01000002	          0.01083263	          0.01000022	          0.01000700	          0.32429100	          0.09615254	          0.00999999	          0.01000000	          0.05146174	          0.03258814	          0.01291311	          0.07677657	          0.04307661	          0.22519406	          0.01000019	          0.01000003	          0.22818032	          0.24447930	          0.00999999	
          1.44759698	         -5.81919412	         -4.36111043	         11.45706409	          1.27103841	          0.87849251	         -0.01674159	         22.45726789	          1.43757697	         -0.42327381	          0.38600166	          3.57501906	          0.18542127	         -8.67993689	         -3.66083894	         12.37357587	        -14.22315269	         11.09987792	         28.91120343	         -1.80543945	          2.91525228	         -1.89121090	          0.06585875	          0.12737831	          0.01000000	          0.06694592	          0.06550828	          0.03331415	          0.02938687	          0.03584927	          0.02632224	          0.01000002	          0.01627484	          0.01000001	          0.01000000	          0.34694261	          0.11388293	          0.00999999	          0.01000000	          0.04177134	          0.03390281	          0.01380353	          0.06231933	          0.03496516	          0.19406864	          0.01000009	          0.01000002	          0.18521330	          0.21620202	          0.00999999	
          1.46151618	         -5.88136575	         -4.23924506	         11.05227426	          1.28626586	          0.87821105	         -0.01528478	         21.76645666	          1.75639331	          0.55809683	          0.09584680	          3.21062905	          0.17202488	         -8.44703047	         -3.41390521	         11.32232934	        -16.44246501	         10.19252456	         30.53677893	         -1.53894309	          3.27777941	         -2.10713523	          0.06016567	          0.10339262	          0.01000000	          0.08678536	          0.06371398	          0.03788273	          0.02385328	          0.03219980	          0.02136569	          0.01000001	          0.02176099	          0.01000002	          0.01000001	          0.35875349	          0.12575817	          0.00999999	          0.01000000	          0.03390568	          0.04136869	          0.01868784	          0.05058444	          0.02838112	          0.17388786	          0.01000003	          0.01000000	          0.15033710	          0.17549055	          0.00999999	
          1.47543538	         -5.92760631	         -4.10599242	         10.57976735	          1.30136783	          0.87851266	         -0.01377508	         21.03760740	          2.06819004	          1.46414278	         -0.17206109	          2.98505919	          0.16179267	         -8.03910177	         -3.13409272	         10.17832034	        -18.94603748	          9.08805670	         31.90174602	         -1.29748029	          3.64632740	         -2.30584506	          0.05188772	          0.08392349	          0.01000000	          0.10658400	          0.06538052	          0.04080978	          0.01936169	          0.02613659	          0.01734247	          0.01000001	          0.02125889	          0.01000003	          0.01000002	          0.35751229	          0.13575188	          0.00999999	          0.01000000	          0.02752114	          0.05302574	          0.02364453	          0.04105929	          0.02303687	          0.15694541	          0.01000001	          0.01000000	          0.12202818	          0.14244517	          0.00999999	
          1.48935458	         -5.95846681	         -3.95095404	         10.04567616	          1.31625518	          0.87936252	         -0.01223231	         20.27320242	          2.35372558	          2.29591092	         -0.41097790	          2.88304695	          0.15490038	         -7.44534479	         -2.82189041	          8.91989145	        -21.72918509	          7.84659843	         32.79019560	         -1.08939277	          4.00615295	         -2.48590791	          0.04591405	          0.06812046	          0.01000000	          0.11522861	          0.05306987	          0.04350971	          0.01571590	          0.02153907	          0.01407683	          0.01000000	          0.02000812	          0.01000004	          0.01000002	          0.34836908	          0.13752344	          0.01000000	          0.01000001	          0.02233883	          0.06160729	          0.02784977	          0.03821890	          0.01869896	          0.14073444	          0.01000000	          0.00999999	          0.09904992	          0.11562233	          0.00999999	
          1.50327378	         -5.97448570	         -3.75923331	          9.45622971	          1.33087018	          0.88071229	         -0.01067295	         19.47430771	          2.59207177	          3.06134622	         -0.61120683	          2.86506677	          0.15199216	         -6.66052286	         -2.48094377	          7.53896434	        -24.78285733	          6.52232988	         33.01099379	         -0.92128422	          4.33827520	         -2.64631760	          0.04368941	          0.05529319	          0.01000000	          0.11512241	          0.04307667	          0.04609112	          0.01275667	          0.01995438	          0.01142612	          0.01000000	          0.01624123	          0.01000006	          0.01000004	          0.33526459	          0.13494568	          0.01000000	          0.01000001	          0.01813236	          0.07098754	          0.02847550	          0.03775664	          0.01517789	          0.12645752	          0.01000000	          0.00999999	          0.08039853	          0.09385030	          0.00999999	
